<?xml version="1.0" standalone="no"?>
<!DOCTYPE svg PUBLIC "-//W3C//DTD SVG 20010904//EN"
 "http://www.w3.org/TR/2001/REC-SVG-20010904/DTD/svg10.dtd">
<svg version="1.0" xmlns="http://www.w3.org/2000/svg"
 width="512.000000pt" height="512.000000pt" viewBox="0 0 512.000000 512.000000"
 preserveAspectRatio="xMidYMid meet">
<metadata>
Created by potrace 1.11, written by Peter Selinger 2001-2013
</metadata>
<g transform="translate(0.000000,512.000000) scale(0.100000,-0.100000)"
fill="#000000" stroke="none">
<path d="M2540 4309 c0 -5 -9 -9 -20 -9 -11 0 -20 -4 -20 -10 0 -5 -3 -9 -7
-8 -5 1 -30 -9 -58 -22 -27 -13 -56 -23 -62 -23 -7 0 -13 -4 -13 -9 0 -4 -8
-8 -18 -8 -10 0 -23 -5 -30 -12 -6 -6 -19 -13 -27 -14 -17 -3 -89 -35 -150
-67 -22 -12 -42 -20 -45 -20 -3 1 -25 -7 -49 -18 -24 -10 -47 -19 -52 -19 -5
0 -9 -5 -9 -10 0 -6 -3 -9 -8 -8 -10 4 -215 -84 -223 -95 -3 -5 -10 -8 -15 -8
-18 2 -74 -21 -74 -30 0 -5 -3 -8 -8 -6 -8 2 -144 -53 -152 -62 -3 -3 -10 -7
-16 -8 -7 -1 -38 -14 -70 -29 -33 -15 -64 -28 -70 -29 -5 -2 -36 -14 -67 -29
-72 -33 -150 -67 -207 -91 -25 -11 -48 -24 -52 -30 -4 -5 -8 -7 -8 -3 0 7 -63
-19 -235 -98 -33 -15 -62 -28 -65 -29 -26 -6 -80 -31 -80 -37 0 -4 -3 -7 -7
-6 -5 2 -33 -8 -63 -22 -30 -13 -57 -25 -60 -25 -3 -1 -18 -8 -35 -15 -16 -7
-32 -14 -35 -15 -3 0 -30 -12 -60 -26 -30 -14 -111 -50 -180 -79 -69 -30 -127
-57 -130 -60 -3 -3 -12 -6 -20 -8 -24 -6 -47 -21 -31 -22 7 0 11 -6 7 -15 -3
-8 -2 -15 2 -15 7 0 45 -84 48 -109 2 -8 6 -17 11 -20 4 -3 9 -10 10 -16 4
-20 52 -110 52 -98 1 7 8 10 16 7 8 -4 15 -1 15 5 0 6 4 11 9 11 5 0 31 10 58
22 85 38 83 40 84 -60 0 -48 1 -470 2 -938 l2 -851 -65 -1 c-36 0 -109 -1
-162 -1 l-98 -1 0 -155 0 -155 2560 0 2561 0 -3 157 -3 158 -160 -1 -160 -1 2
934 c1 515 4 937 6 939 2 3 17 -1 33 -7 16 -7 31 -13 34 -14 3 -1 23 -10 45
-20 22 -10 43 -18 48 -17 4 1 7 -2 7 -6 0 -5 6 -9 14 -9 13 0 32 41 28 60 -1
4 3 7 9 7 5 0 7 5 4 10 -3 6 -1 10 6 10 7 0 10 3 6 6 -3 3 3 21 14 41 11 19
20 42 22 52 1 9 13 34 25 55 12 21 20 41 17 46 -2 4 -31 18 -62 31 -32 12 -67
28 -78 35 -11 7 -23 13 -27 14 -8 1 -67 24 -113 45 -98 43 -126 56 -185 82
-36 16 -69 31 -75 33 -10 3 -60 25 -145 62 -25 11 -61 27 -80 35 -55 24 -88
39 -183 82 -49 23 -91 41 -95 41 -6 0 -181 76 -367 160 -33 15 -76 33 -95 40
-19 8 -50 22 -68 32 -18 10 -41 18 -51 18 -11 0 -21 3 -23 8 -3 7 -69 37 -558
249 -118 51 -228 100 -245 108 -70 34 -125 49 -125 34z"/>
</g>
</svg>
